<?xml version="1.0" standalone="no"?>
<!DOCTYPE svg PUBLIC "-//W3C//DTD SVG 20010904//EN" "http://www.w3.org/TR/2001/REC-SVG-20010904/DTD/svg10.dtd">
<svg xmlns="http://www.w3.org/2000/svg" version="1.0" width="624.000000pt" height="1920.000000pt" viewBox="0 0 624.000000 1920.000000" preserveAspectRatio="xMidYMid meet">
<metadata>
Created by potrace 1.16, written by Peter Selinger 2001-2019
<meta name="Producer" content="Online-Convert"/></metadata>
<g transform="translate(0.000000,1920.000000) scale(0.100000,-0.100000)" fill="#000000" stroke="none">
<path d="M3774 19145 c-79 -17 -130 -44 -176 -92 -33 -34 -112 -149 -120 -174 -2 -7 -19 -2 -40 10 -110 65 -308 11 -308 -84 0 -25 8 -40 35 -64 45 -39 104 -55 183 -47 56 5 63 4 58 -12 -2 -9 -7 -26 -10 -37 -2 -11 -18 -66 -35 -121 l-31 -101 -47 23 c-83 43 -217 28 -274 -29 -90 -89 56 -203 215 -167 27 6 50 9 52 8 2 -3 -75 -268 -81 -275 -1 -2 -18 6 -39 16 -112 57 -279 16 -302 -74 -9 -36 19 -73 77 -103 38 -20 55 -23 126 -20 96 5 92 26 34 -160 l-37 -120 -23 19 c-89 72 -302 36 -325 -56 -22 -88 141 -164 262 -122 38 13 43 13 38 0 -3 -8 -22 -67 -41 -131 -19 -65 -37 -122 -40 -129 -3 -9 -15 -7 -47 7 -83 38 -218 22 -275 -32 -31 -29 -31 -87 0 -116 49 -46 151 -67 234 -48 25 6 32 4 29 -6 -3 -7 -21 -67 -42 -133 -20 -66 -38 -121 -39 -123 -2 -2 -17 4 -33 12 -82 43 -226 24 -276 -35 -73 -86 28 -178 184 -167 38 3 70 4 70 3 0 -2 -22 -76 -50 -165 -27 -89 -50 -172 -50 -185 0 -48 23 -86 83 -134 34 -27 85 -71 114 -98 l52 -48 -70 -3950 c-39 -2172 -72 -3960 -74 -3972 -7 -32 -147 -176 -217 -223 -118 -79 -276 -104 -418 -66 -220 59 -447 248 -553 460 -89 176 -114 301 -127 616 -10 239 -24 326 -59 364 l-21 22 32 60 c39 74 34 107 -18 131 -50 24 -80 6 -119 -73 l-30 -61 -75 -5 c-120 -8 -206 -61 -321 -199 -242 -289 -308 -826 -190 -1539 13 -75 55 -229 121 -440 117 -374 238 -792 280 -963 41 -167 54 -302 47 -497 -7 -186 -30 -339 -83 -540 -63 -241 -130 -399 -349 -820 -137 -264 -295 -710 -376 -1062 -75 -327 -102 -544 -102 -838 0 -288 28 -485 105 -715 78 -236 243 -506 389 -638 403 -367 1204 -596 2176 -624 l221 -6 7 -86 c8 -100 27 -131 80 -131 49 0 72 33 80 110 12 122 -10 110 188 110 370 0 789 42 1152 115 484 98 895 267 1160 478 266 211 464 627 515 1082 13 117 13 454 0 586 -38 381 -160 857 -325 1264 -56 140 -88 206 -247 515 -175 341 -252 690 -228 1032 16 230 56 374 164 598 135 282 216 540 277 880 53 298 10 661 -103 858 -80 140 -219 239 -350 249 -55 5 -72 2 -120 -21 -105 -50 -169 -149 -188 -292 -19 -144 -31 -198 -65 -301 -61 -182 -131 -299 -248 -411 -103 -98 -260 -161 -403 -162 -78 0 -211 26 -310 61 -98 34 -296 133 -317 158 -12 13 -18 726 -42 4414 -15 2419 -25 4435 -22 4480 9 146 85 336 182 459 56 72 140 139 223 179 l62 30 0 138 c0 106 -6 170 -25 272 -66 351 -154 722 -204 858 -25 69 -31 100 -31 167 l0 81 49 46 c26 25 75 60 107 78 32 19 90 64 129 100 124 119 184 249 184 399 1 101 -9 149 -51 253 -26 67 -39 85 -86 123 -140 114 -302 155 -468 119z"/>
</g>
</svg>
