<?xml version="1.0" encoding="UTF-8"?>
<svg version="1.1" xmlns="http://www.w3.org/2000/svg" width="745" height="745">
<path d="M0 0 C13.88526644 8.48221297 19.85542336 27.53223819 23.625 42.5 C26.92629325 56.35669984 27.86290289 69.76555993 27.875 83.9375 C27.87600708 84.75580292 27.87701416 85.57410583 27.87805176 86.41720581 C27.86601623 100.94214604 26.95824245 115.14445814 24.625 129.5 C24.48046387 130.39412598 24.33592773 131.28825195 24.18701172 132.20947266 C17.64650297 171.1121 0.66997809 205.74230606 -26.375 234.5 C-27.16173096 235.33772949 -27.16173096 235.33772949 -27.96435547 236.19238281 C-36.77370316 245.49461364 -46.07991059 253.55203463 -56.43603516 261.08691406 C-58.24414442 262.40463459 -60.03646595 263.74079134 -61.82421875 265.0859375 C-69.09046053 270.5 -69.09046053 270.5 -71.375 270.5 C-71.06680259 274.54200677 -70.75268084 278.58353225 -70.4375 282.625 C-70.30698242 284.33816406 -70.30698242 284.33816406 -70.17382812 286.0859375 C-70.08681641 287.19453125 -69.99980469 288.303125 -69.91015625 289.4453125 C-69.79232788 290.96922607 -69.79232788 290.96922607 -69.67211914 292.52392578 C-69.37033542 295.54672247 -68.87567526 298.50478235 -68.375 301.5 C-68.33197085 303.62456431 -68.33462724 305.75038355 -68.375 307.875 C-68.44261634 315.78611219 -67.94844115 323.61518423 -67.375 331.5 C-65.75658203 331.62955078 -65.75658203 331.62955078 -64.10546875 331.76171875 C-34.59143992 334.40819438 -7.7232405 344.58465226 12.1328125 367.37890625 C20.61156167 378.17134799 26.32970851 390.19389407 29.625 403.5 C29.80160156 404.19552979 29.97820312 404.89105957 30.16015625 405.60766602 C31.86603415 413.03356573 32.01106042 420.34091573 32 427.9375 C31.99912384 428.59851715 31.99824768 429.2595343 31.99734497 429.94058228 C31.85651847 462.25124831 19.38379173 491.65567899 -3.1875 514.75 C-15.98553947 527.3798601 -38.47378013 542.5 -57.375 542.5 C-57.33741577 543.09213287 -57.29983154 543.68426575 -57.2611084 544.29434204 C-54.0796743 594.7181488 -54.0796743 594.7181488 -54 617.875 C-53.99250732 618.61985657 -53.98501465 619.36471313 -53.97729492 620.13214111 C-53.77773721 643.96398862 -60.00229302 666.88479271 -76.8125 684.4375 C-93.42313579 699.95608707 -115.19934437 707.81381705 -137.85498047 707.46142578 C-160.46755192 706.43896718 -180.91323574 699.5923558 -197.375 683.5 C-209.65544831 669.68689044 -217.93128426 651.86547374 -217.58203125 633.1328125 C-216.35150201 617.48419534 -210.18789543 603.0337921 -198.375 592.5 C-186.47473373 583.42002805 -174.21633742 580.40691394 -159.375 581.5 C-147.79470833 583.79247855 -136.76993234 589.07406511 -129.375 598.5 C-122.06450757 609.58509362 -117.50534978 620.85624323 -119.87109375 634.32421875 C-122.73984682 646.98238907 -127.80182648 657.0066642 -138.75 664.25 C-147.1390892 669.29700252 -154.69667598 671.1289041 -164.375 672.5 C-151.1748727 682.49839429 -138.82261969 685.89825722 -122.375 684.5 C-106.97555381 681.3988457 -94.26776851 672.52311456 -85.53442383 659.67919922 C-73.98654824 641.80368586 -75.19160986 623.06693491 -76.25921631 602.72637939 C-76.52569813 597.60225844 -76.77685504 592.4773452 -77.02944946 587.3525238 C-77.25136541 582.85209539 -77.47715011 578.35197098 -77.71386719 573.85229492 C-78.18532058 564.72260484 -78.51493767 555.64466769 -78.375 546.5 C-78.9419458 546.51571045 -79.5088916 546.5314209 -80.09301758 546.54760742 C-124.44376451 547.60517126 -163.36023571 532.10563102 -196.375 502.5 C-221.99990023 477.73841953 -238.76536875 443.01836162 -239.67578125 407.15234375 C-239.6952689 404.58080004 -239.69873036 402.00909303 -239.6875 399.4375 C-239.68534485 398.76157806 -239.6831897 398.08565613 -239.68096924 397.38925171 C-239.45363939 352.73601891 -221.2366113 315.06531004 -189.80029297 283.94091797 C-182.91278866 277.25704791 -175.63028371 271.19215296 -168.03125 265.33984375 C-164.14617841 262.34317811 -160.35592042 259.23629058 -156.5625 256.125 C-149.07448001 250.00861057 -141.42899951 244.11860776 -133.72314453 238.28027344 C-130.25729006 235.65259504 -126.79807011 233.01623237 -123.33862305 230.38012695 C-121.59966437 229.05513901 -119.86028238 227.73070635 -118.12036133 226.40698242 C-116.44336249 225.13053485 -114.78275964 223.83230168 -113.13793945 222.51464844 C-110.375 220.5 -110.375 220.5 -106.88354492 218.69628906 C-102.96713211 216.54853808 -99.69850044 214.40348802 -97.375 210.5 C-95.11150382 202.16505409 -95.92321221 193.16855499 -96.1875 184.625 C-96.23863671 181.12928467 -96.27127254 177.63375261 -96.301651 174.13780212 C-96.32184726 171.84929513 -96.34837181 169.56083494 -96.3813324 167.2724762 C-96.49006667 157.23295206 -95.6960348 147.44319536 -94.375 137.5 C-94.23376709 136.38077148 -94.09253418 135.26154297 -93.94702148 134.10839844 C-90.86925507 111.32951356 -84.60077346 89.52973287 -75.375 68.5 C-74.90175293 67.40316895 -74.90175293 67.40316895 -74.41894531 66.28417969 C-64.24257244 42.88379482 -48.97669349 15.7798821 -26.375 2.5 C-25.30185547 1.85224609 -25.30185547 1.85224609 -24.20703125 1.19140625 C-16.90530903 -2.65230545 -7.65160179 -3.32807534 0 0 Z M-46.4375 90.5 C-62.88725159 112.5512598 -74.65865219 139.41370083 -74.47265625 167.27734375 C-74.4712413 168.08869278 -74.46982635 168.90004181 -74.46836853 169.73597717 C-74.46281357 172.30319047 -74.45026967 174.87031348 -74.4375 177.4375 C-74.43247917 179.18814977 -74.42791729 180.93880093 -74.42382812 182.68945312 C-74.41285893 186.9596697 -74.39562582 191.22981959 -74.375 195.5 C-70.12420707 193.88454586 -66.60739303 191.78357847 -62.9375 189.125 C-62.02170166 188.46298584 -62.02170166 188.46298584 -61.08740234 187.78759766 C-31.50558583 166.0811147 -5.60568916 137.68410242 0.99560547 100.40722656 C2.0996645 92.71899575 2.71458911 84.21139689 -1.70703125 77.46875 C-4.81078286 73.63424168 -7.58876885 70.96437186 -12.6015625 70.12890625 C-26.82841042 69.73500329 -37.99089504 79.9252207 -46.4375 90.5 Z M-103.5 291.1875 C-104.49104736 291.86578857 -105.48209473 292.54407715 -106.50317383 293.24291992 C-118.37856106 301.46183449 -129.4141172 310.49459824 -140 320.30859375 C-142.08810039 322.23527849 -144.21361873 324.09422525 -146.375 325.9375 C-153.53422937 332.17058676 -160.29696392 338.99564577 -166.44140625 346.23046875 C-167.98981504 348.04789402 -169.56108748 349.83381759 -171.15234375 351.61328125 C-189.7988893 372.63833437 -201.00691816 396.20316432 -200.58203125 424.90234375 C-200.30937756 428.32337591 -199.4153091 431.24036483 -198.375 434.5 C-198.705 435.49 -199.035 436.48 -199.375 437.5 C-198.82261756 440.5632117 -198.14769797 443.49032005 -197.375 446.5 C-197.15199219 447.50160156 -196.92898438 448.50320313 -196.69921875 449.53515625 C-192.64159268 465.97719555 -184.09402524 480.38977363 -172.375 492.5 C-171.62089844 493.2940625 -170.86679687 494.088125 -170.08984375 494.90625 C-150.06196893 514.41882787 -119.67795774 525.79463771 -92 525.5625 C-90.97777344 525.55798828 -89.95554687 525.55347656 -88.90234375 525.54882812 C-86.39316806 525.537103 -83.8841151 525.52069176 -81.375 525.5 C-80.13798917 521.78896751 -80.21491435 518.36125541 -80.23266602 514.49633789 C-80.23508836 513.6639689 -80.2375107 512.8315999 -80.24000645 511.97400761 C-80.33469204 500.15542002 -81.02428809 488.3582036 -81.65234375 476.55859375 C-81.78477186 474.01222782 -81.91689219 471.46584586 -82.04872131 468.91944885 C-82.32381682 463.62719915 -82.60228434 458.335138 -82.88354492 453.04321289 C-83.20849356 446.92822509 -83.52656824 440.81290734 -83.841196 434.69738048 C-84.14572387 428.78165573 -84.45527218 422.86620181 -84.76703072 416.95085335 C-84.8986939 414.44338769 -85.02905272 411.9358532 -85.15809441 409.42825127 C-85.33796386 405.94598139 -85.52353275 402.46406228 -85.71069336 398.98217773 C-85.76320251 397.94388321 -85.81571167 396.90558868 -85.86981201 395.83583069 C-85.94760139 394.42145218 -85.94760139 394.42145218 -86.02696228 392.97850037 C-86.07028655 392.15697196 -86.11361082 391.33544355 -86.15824795 390.48902035 C-86.26624279 388.42777635 -86.26624279 388.42777635 -87.375 386.5 C-102.54837507 390.42414872 -116.32383001 401.31387933 -124.8125 414.375 C-131.29040919 426.27933167 -133.40011182 438.92684966 -130.25 452.1875 C-126.48191525 464.06743388 -119.77852836 474.00033428 -108.8125 480.25 C-106.84375 481.375 -106.84375 481.375 -105.375 482.5 C-104.8125 485.25 -104.8125 485.25 -105.375 487.5 C-106.375 488.5 -106.375 488.5 -109.6875 488.875 C-121.79958865 488.6587127 -132.76032137 480.02766225 -141.1875 472.0625 C-155.77536442 456.53684429 -159.0268376 437.23335246 -158.6796875 416.75 C-157.83536885 393.49983688 -145.45020646 373.37883168 -128.92578125 357.64453125 C-117.70114517 347.41680984 -103.80176864 340.06737881 -89.375 335.5 C-88.97931534 318.44159485 -90.19057881 301.50557925 -91.375 284.5 C-95.75024846 284.5 -100.00216268 288.78983815 -103.5 291.1875 Z M-65.375 385.5 C-65.57541097 401.39787837 -64.9528859 417.1801031 -64.0625 433.05078125 C-63.92748351 435.53180803 -63.79297138 438.01286231 -63.65893555 440.49394226 C-63.30883469 446.94987672 -62.95199246 453.40542057 -62.59362793 459.86090088 C-62.22752713 466.47800413 -61.86796487 473.09546143 -61.5078125 479.71289062 C-60.80318653 492.6422776 -60.09164378 505.57127385 -59.375 518.5 C-46.99479753 516.24431277 -37.93224773 508.14559689 -29.375 499.5 C-28.70726562 498.85417969 -28.03953125 498.20835937 -27.3515625 497.54296875 C-14.49003754 484.18676975 -9.69987854 465.92471184 -9.90405273 447.86816406 C-10.54699221 430.17965426 -17.59321605 414.76096423 -30.375 402.5 C-40.25767589 393.35898834 -52.29195355 388.16162506 -65.375 385.5 Z M-80.375 522.5 C-79.375 524.5 -79.375 524.5 -79.375 524.5 Z " fill="#F6F6F6" transform="translate(700.375,25.5)"/>
<path d="M0 0 C27.39 0 54.78 0 83 0 C89.88602822 13.77205645 89.88602822 13.77205645 92.671875 20.26171875 C92.99168335 20.99868988 93.3114917 21.73566101 93.64099121 22.4949646 C94.32496941 24.07203757 95.00747866 25.64974835 95.68859863 27.22805786 C97.16115179 30.64020654 98.64102382 34.04916565 100.12054443 37.45829773 C100.89843361 39.25072137 101.67597727 41.04329501 102.45318604 42.83601379 C106.30811362 51.72361946 110.20442725 60.59286478 114.10534668 69.46035767 C119.60350401 81.95932806 125.08351692 94.46539916 130.5 107 C135.60366293 118.81031076 140.76161371 130.59617841 145.9375 142.375 C146.51683792 143.69343903 146.51683792 143.69343903 147.10787964 145.03851318 C148.64869 148.544885 150.18956343 152.05122908 151.73054504 155.55752563 C161.00661241 176.66659532 170.23215997 197.79787195 179.43554688 218.9387207 C182.82687516 226.72777816 186.22307443 234.51458671 189.6374054 242.29359436 C191.23065651 245.92417283 192.82127867 249.55590034 194.41171265 253.18771362 C195.17555379 254.92992934 195.9406997 256.67157362 196.70718384 258.41262817 C197.76770079 260.82184129 198.82378065 263.23295318 199.87890625 265.64453125 C200.19676086 266.36340515 200.51461548 267.08227905 200.84210205 267.82293701 C203 272.77226514 203 272.77226514 203 275 C203.66 275.33 204.32 275.66 205 276 C205.69556708 278.06725992 206.38369962 280.13723812 207.04003906 282.21728516 C208.93103832 287.69887456 211.46696392 292.91796187 213.875 298.1875 C215.05253737 300.78508021 216.22587658 303.38454514 217.3984375 305.984375 C217.69800354 306.64795517 217.99756958 307.31153534 218.30621338 307.995224 C221.43827237 314.94684273 224.47816983 321.93740147 227.5 328.9375 C227.7678833 329.55778076 228.0357666 330.17806152 228.31176758 330.81713867 C229.39905494 333.33525582 230.4858704 335.85357537 231.57171631 338.37231445 C233.69845444 343.30513209 235.83557987 348.23336583 237.97550964 353.16047668 C240.99082775 360.10389306 243.99715722 367.05118026 247 374 C247.29497375 374.68233704 247.58994751 375.36467407 247.89385986 376.06768799 C250.08015148 381.12627861 252.26095835 386.18720688 254.4375 391.25 C254.9025444 392.33089401 254.9025444 392.33089401 255.37698364 393.43362427 C258.98985876 401.83999346 262.53943046 410.26869646 265.9921875 418.7421875 C266.47695305 419.93001831 266.47695305 419.93001831 266.97151184 421.1418457 C268.52751131 424.95808859 270.07490924 428.77748904 271.60913086 432.60253906 C272.16241153 433.96687237 272.71586842 435.33113423 273.26953125 436.6953125 C273.99039917 438.4899292 273.99039917 438.4899292 274.72583008 440.32080078 C275.71780163 443.1154275 275.71780163 443.1154275 278 444 C278.18091187 442.92854736 278.18091187 442.92854736 278.36547852 441.83544922 C279.02095236 438.90637142 279.97302932 436.39092958 281.15234375 433.6328125 C281.59376709 432.59463379 282.03519043 431.55645508 282.48999023 430.48681641 C282.96766846 429.37741699 283.44534668 428.26801758 283.9375 427.125 C284.43258057 425.96532715 284.92766113 424.8056543 285.43774414 423.61083984 C288.97873333 415.33178012 292.56150176 407.07080503 296.16235352 398.81762695 C299.42919137 391.3283804 302.65889423 383.82366316 305.875 376.3125 C306.37837891 375.136875 306.88175781 373.96125 307.40039062 372.75 C309.43191277 368.00374316 311.4623342 363.25701586 313.49267578 358.51025391 C321.54674876 339.68375866 329.66958676 320.88789759 337.82287598 302.10424805 C339.73677964 297.69480031 341.65011445 293.28510638 343.5625 288.875 C343.8331427 288.25088226 344.1037854 287.62676453 344.38262939 286.98373413 C348.21466365 278.14441135 352.02278649 269.29506154 355.8125 260.4375 C360.37191162 249.7812359 364.95942813 239.13746082 369.5625 228.5 C369.8931546 227.73582764 370.2238092 226.97165527 370.56448364 226.18432617 C371.9430836 222.99831718 373.32173314 219.81232966 374.70045471 216.62637329 C386.17763858 190.10308485 397.63417164 163.5712177 409 137 C411.47804281 131.20785199 413.95716972 125.41616884 416.4375 119.625 C416.91491638 118.5102681 416.91491638 118.5102681 417.40197754 117.37301636 C422.26622566 106.01811621 427.16566726 94.67897599 432.08569336 83.34814453 C436.57248823 73.00948944 441.01215233 62.65091412 445.44592285 52.28942871 C451.48796174 38.17149805 457.58356464 24.07722487 463.70410156 9.99316406 C465.1446817 6.6658256 466.57172595 3.33263944 468 0 C477.57 0 487.14 0 497 0 C495.83210938 2.29195312 494.66421875 4.58390625 493.4609375 6.9453125 C489.18098715 15.45157426 485.3604886 24.11918853 481.625 32.875 C480.93352254 34.48569344 480.24161565 36.09620257 479.54931641 37.70654297 C477.7268248 41.94906187 475.91007069 46.19401156 474.0949707 50.43969727 C472.31062626 54.61192026 470.52235792 58.78246028 468.734375 62.953125 C466.52923391 68.09753723 464.32464609 73.24218415 462.12207031 78.38769531 C455.77339811 93.21589492 449.38393616 108.0263335 442.98892212 122.83459473 C436.15507338 138.66116749 429.3532888 154.50119427 422.57104492 170.34994507 C414.22206193 189.85922399 405.83255631 209.35002802 397.375 228.8125 C396.90054443 229.90434601 396.42608887 230.99619202 395.93725586 232.12112427 C395.46360596 233.21109711 394.98995605 234.30106995 394.50195312 235.42407227 C379.66073382 269.57780446 364.93855934 303.78230961 350.28063965 338.01507568 C343.27024698 354.38697924 336.23339659 370.74707831 329.16381836 387.09350586 C322.40021653 402.73406497 315.68241137 418.39397271 308.97610474 434.05917358 C302.4442453 449.31541839 295.89615266 464.56446014 289.27954102 479.78417969 C286.52367622 486.12767792 283.78714219 492.4743591 281.15625 498.87109375 C280.74084961 499.87301758 280.32544922 500.87494141 279.89746094 501.90722656 C279.16508754 503.68175173 278.4432621 505.46069206 277.73535156 507.24511719 C275.51550955 512.60646298 275.51550955 512.60646298 273.42333984 514.20361328 C269.79548755 515.39584119 266.2061677 515.26434374 262.4296875 515.23046875 C261.59341827 515.23001053 260.75714905 515.22955231 259.89553833 515.2290802 C258.12533145 515.2260619 256.35512712 515.21818821 254.58496094 515.20581055 C251.90550062 515.18770609 249.22638976 515.18530005 246.546875 515.18554688 C238.30384179 515.16793232 230.18790352 515.06391678 222 514 C221.45980225 512.73168335 221.45980225 512.73168335 220.90869141 511.43774414 C213.46676552 493.98107226 205.9570364 476.55648456 198.3125 459.1875 C191.8826913 444.57714391 185.48525576 429.9532787 179.125 415.3125 C178.71140228 414.36053741 178.29780457 413.40857483 177.87167358 412.42776489 C175.76681415 407.58275672 173.66251801 402.73750418 171.55859375 397.89208984 C167.24970166 387.96872456 162.93775231 378.04668812 158.625 368.125 C158.20533966 367.15946198 157.78567932 366.19392395 157.353302 365.1991272 C151.82311762 352.47655373 146.2770332 339.76110053 140.71017456 327.05453491 C136.14739812 316.63880171 131.61799906 306.2088656 127.1015625 295.77294922 C113.80898469 265.06611864 100.44133422 234.38938366 86.93286133 203.77685547 C81.70560027 191.92891749 76.55731798 180.04816839 71.42700195 168.15805054 C65.87409679 155.29258937 60.26479114 142.45259573 54.625 129.625 C54.2396106 128.74838715 53.85422119 127.87177429 53.45715332 126.96859741 C52.69420403 125.23322027 51.93125441 123.49784328 51.16830444 121.76246643 C50.80209991 120.92948532 50.43589539 120.09650421 50.05859375 119.23828125 C49.70004303 118.42274277 49.34149231 117.60720428 48.97207642 116.76695251 C43.64130676 104.63809558 38.37368671 92.48202622 33.109375 80.32421875 C32.32169525 78.50531173 31.53401445 76.68640516 30.74627686 74.86752319 C30.20882924 73.62651849 29.67143469 72.3854908 29.13409424 71.1444397 C23.07250671 57.14597097 16.97246193 43.16430014 10.86836243 29.18432617 C9.86985768 26.89465999 8.87441781 24.60368086 7.87939453 22.3125 C6.65459433 19.49366939 5.41533931 16.68195258 4.16357422 13.875 C3.60769278 12.61460742 3.05186286 11.35419212 2.49609375 10.09375 C2.01197021 9.00771484 1.52784668 7.92167969 1.02905273 6.80273438 C0 4 0 4 0 0 Z " fill="#F2F2F2" transform="translate(11,186)"/>
<path d="M0 0 C8.38934168 7.52465076 12.36189894 20.34757298 15 31 C15.26490234 32.04329468 15.26490234 32.04329468 15.53515625 33.10766602 C17.24103415 40.53356573 17.38606042 47.84091573 17.375 55.4375 C17.37412384 56.09851715 17.37324768 56.7595343 17.37234497 57.44058228 C17.23151847 89.75124831 4.75879173 119.15567899 -17.8125 142.25 C-30.61053947 154.8798601 -53.09878013 170 -72 170 C-71.96241577 170.59213287 -71.92483154 171.18426575 -71.8861084 171.79434204 C-68.7046743 222.2181488 -68.7046743 222.2181488 -68.625 245.375 C-68.61750732 246.11985657 -68.61001465 246.86471313 -68.60229492 247.63214111 C-68.40273721 271.46398862 -74.62729302 294.38479271 -91.4375 311.9375 C-108.04813579 327.45608707 -129.82434437 335.31381705 -152.47998047 334.96142578 C-166.49673666 334.32763882 -180.52355008 331.62449276 -193 325 C-189.57869585 323.8056258 -187.99040717 324.16360222 -184.75 325.6875 C-163.93778596 334.34417454 -142.15637769 334.67115473 -121 327 C-120.32445068 326.76643799 -119.64890137 326.53287598 -118.95288086 326.29223633 C-100.31544691 319.65962649 -87.36386807 306.1681359 -78.6875 288.75 C-65.83523831 259.36830175 -71.00451814 224.62383102 -72.93261719 193.63769531 C-73.00152161 192.52713776 -73.07042603 191.4165802 -73.14141846 190.27236938 C-73.27267483 188.17486088 -73.4062816 186.07749763 -73.54266357 183.98031616 C-73.85976547 178.97418027 -74.07321617 174.01617944 -74 169 C-73.01157104 168.69147095 -73.01157104 168.69147095 -72.00317383 168.37670898 C-40.60948987 158.48960359 -15.13169433 142.92854284 0.90478516 113.13232422 C15.36615969 84.97680813 19.41014734 53.3438591 10.3125 22.9375 C8.33059242 17.28712034 5.56287853 12.10894524 2.6418457 6.89819336 C0 2.18110258 0 2.18110258 0 0 Z " fill="#343434" transform="translate(715,398)"/>
<path d="M0 0 C2.66910779 2.66910779 3.36241412 5.66291929 4.4375 9.1875 C4.65631836 9.897854 4.87513672 10.60820801 5.10058594 11.34008789 C9.86330419 27.23750676 11.23591305 42.93443573 11.25 59.4375 C11.25100708 60.25580292 11.25201416 61.07410583 11.25305176 61.91720581 C11.24101623 76.44214604 10.33324245 90.64445814 8 105 C7.85546387 105.89412598 7.71092773 106.78825195 7.56201172 107.70947266 C1.02150297 146.6121 -15.95502191 181.24230606 -43 210 C-43.5244873 210.55848633 -44.04897461 211.11697266 -44.58935547 211.69238281 C-53.39870316 220.99461364 -62.70491059 229.05203463 -73.06103516 236.58691406 C-74.86914442 237.90463459 -76.66146595 239.24079134 -78.44921875 240.5859375 C-85.71546053 246 -85.71546053 246 -88 246 C-87.69180259 250.04200677 -87.37768084 254.08353225 -87.0625 258.125 C-86.97548828 259.26710938 -86.88847656 260.40921875 -86.79882812 261.5859375 C-86.66831055 263.24882813 -86.66831055 263.24882813 -86.53515625 264.9453125 C-86.41732788 266.46922607 -86.41732788 266.46922607 -86.29711914 268.02392578 C-85.99533542 271.04672247 -85.50067526 274.00478235 -85 277 C-84.95697085 279.12456431 -84.95962724 281.25038355 -85 283.375 C-85.06761634 291.28611219 -84.57344115 299.11518423 -84 307 C-80.37 307.33 -76.74 307.66 -73 308 C-73 308.33 -73 308.66 -73 309 C-77.29 309 -81.58 309 -86 309 C-86.43728818 303.26136794 -86.863916 297.52206466 -87.28173828 291.78198242 C-87.4244976 289.83972116 -87.56989782 287.89765174 -87.71826172 285.95581055 C-88.15200737 280.26548065 -88.53364738 274.57558205 -88.8409729 268.87695312 C-88.94815188 266.93798226 -89.06686734 264.99961892 -89.19638062 263.06201172 C-90.20281326 247.17666059 -90.20281326 247.17666059 -87.51611328 242.31469727 C-85.3841832 240.36863979 -83.39402668 239.15752223 -80.8125 237.875 C-79.14940702 236.8720411 -77.48926547 235.86417277 -75.83203125 234.8515625 C-75.00912598 234.37879883 -74.1862207 233.90603516 -73.33837891 233.41894531 C-69.93029433 231.35089483 -66.9825143 228.88149566 -64 226.25 C-63.48074951 225.80092285 -62.96149902 225.3518457 -62.42651367 224.88916016 C-60.943375 223.60151428 -59.47149089 222.30094073 -58 221 C-56.62714844 219.7934375 -56.62714844 219.7934375 -55.2265625 218.5625 C-52.79349997 216.39977775 -50.38952618 214.21063117 -48 212 C-47.41089844 211.46503906 -46.82179688 210.93007813 -46.21484375 210.37890625 C-40.08578106 204.56861278 -35.08036035 197.71797845 -30 191 C-29.35804688 190.15308594 -28.71609375 189.30617187 -28.0546875 188.43359375 C2.97818544 145.78143582 15.25427566 85.91939847 7.69921875 34.1015625 C5.97301746 23.49664875 3.55776687 13.13963559 0 3 C0 2.01 0 1.02 0 0 Z " fill="#313131" transform="translate(717,50)"/>
<path d="M0 0 C0 0.66 0 1.32 0 2 C-1.9140625 3.375 -1.9140625 3.375 -4.625 5 C-20.25366899 14.68537233 -34.91556213 25.94421964 -48.328125 38.51171875 C-50.5542356 40.58486561 -52.81247618 42.58760465 -55.125 44.5625 C-61.89636614 50.44697203 -68.21626339 56.86544615 -74.03125 63.6953125 C-75.59379999 65.52448808 -77.17793897 67.32417991 -78.78125 69.1171875 C-97.42526285 90.14204885 -108.6318915 113.70496504 -108.20703125 142.40234375 C-107.93437756 145.82337591 -107.0403091 148.74036483 -106 152 C-106.33 152.99 -106.66 153.98 -107 155 C-106.44753687 158.06365919 -105.77475596 160.99037107 -105 164 C-104.76539063 165.02480469 -104.53078125 166.04960937 -104.2890625 167.10546875 C-102.2314893 175.30744631 -99.08768428 182.16456316 -94.90991211 189.49023438 C-93.88835155 191.29863551 -92.93731327 193.14653177 -92 195 C-92.33 195.66 -92.66 196.32 -93 197 C-108.57870981 174.83029758 -113.52118703 146.66881654 -109.3515625 120.0078125 C-106.33509615 104.76191663 -99.38889838 91.25817122 -90 79 C-89.31292969 78.10152344 -88.62585938 77.20304687 -87.91796875 76.27734375 C-78.81282088 64.80722241 -68.44452767 54.36717721 -58.125 44 C-57.43599609 43.30632324 -56.74699219 42.61264648 -56.03710938 41.89794922 C-14.00769181 0 -14.00769181 0 0 0 Z " fill="#333333" transform="translate(609,308)"/>
<path d="M0 0 C3.22743571 1.82060476 6.25549899 3.53318642 8.8125 6.25 C9.125 9.5 9.125 9.5 8.8125 12.25 C7.8225 10.765 7.8225 10.765 6.8125 9.25 C2.28685876 3.36157873 2.28685876 3.36157873 -4.4140625 0.87890625 C-14.59850904 0.59692646 -22.06249019 5.44979646 -29.6875 11.84765625 C-51.83436794 33.12941216 -64.84808338 66.68580436 -65.50390625 97.02734375 C-65.52468735 97.83869278 -65.54546844 98.65004181 -65.56687927 99.48597717 C-65.63175643 102.05307339 -65.69096922 104.62026337 -65.75 107.1875 C-65.79324418 108.93816036 -65.83686026 110.68881158 -65.88085938 112.43945312 C-65.9873735 116.70954171 -66.08881114 120.97972368 -66.1875 125.25 C-65.5275 125.58 -64.8675 125.91 -64.1875 126.25 C-65.5075 126.58 -66.8275 126.91 -68.1875 127.25 C-68.2630965 122.31025334 -68.31676416 117.37086166 -68.35229492 112.43066406 C-68.36714586 110.75905475 -68.38743202 109.08748264 -68.41381836 107.41601562 C-68.65524121 91.69986161 -67.25865319 76.54383572 -62 61.625 C-61.70029297 60.75311035 -61.40058594 59.8812207 -61.09179688 58.98291016 C-52.8624525 35.78379448 -39.1388654 12.5207485 -17.1875 0.25 C-11.17458312 -2.47163606 -5.96625609 -2.85930009 0 0 Z " fill="#323232" transform="translate(692.1875,95.75)"/>
<path d="M0 0 C6.34141344 5.66535657 9.5157283 14.60595725 10 23 C10.0825 24.216875 10.165 25.43375 10.25 26.6875 C10.05306466 38.00034113 5.52954233 49.97777989 -2.140625 58.33984375 C-11.93728193 67.08685887 -22.31646847 70.20316637 -35 72 C-34.34 72.99 -33.68 73.98 -33 75 C-35 74 -37 73 -39 72 C-39 71.01 -39 70.02 -39 69 C-37.96101562 68.90203125 -36.92203125 68.8040625 -35.8515625 68.703125 C-21.64169579 67.23572762 -9.80796953 63.6587676 -0.3828125 52.19921875 C6.46905707 41.30203635 9.05406524 28.06025807 6.2109375 15.51953125 C4.9069443 11.51298727 3.54535896 7.90329145 1.36328125 4.2890625 C0 2 0 2 0 0 Z " fill="#262626" transform="translate(571,626)"/>
<path d="M0 0 C-0.33 1.32 -0.66 2.64 -1 4 C-1 3.34 -1 2.68 -1 2 C-14.27953238 8.25414068 -14.27953238 8.25414068 -26 17 C-26.69480469 17.61488281 -27.38960937 18.22976563 -28.10546875 18.86328125 C-37.47184061 27.63217348 -43.09251972 38.72126902 -44.34765625 51.5546875 C-44.61767312 62.28492326 -42.61343764 71.12864651 -36.890625 80.22265625 C-36.59671875 80.80917969 -36.3028125 81.39570313 -36 82 C-36.495 82.99 -36.495 82.99 -37 84 C-43.26506925 74.80780822 -46.7454297 66.41048408 -46.5625 55.1875 C-46.55081787 54.22408691 -46.53913574 53.26067383 -46.52709961 52.26806641 C-46.03997834 36.47578052 -38.46981721 24.90751523 -27.1875 14.1875 C-20.33741981 8.31752459 -9.51604108 0 0 0 Z " fill="#2B2B2B" transform="translate(614,410)"/>
<path d="M0 0 C4.05614351 0.63493959 7.34504414 1.96653927 11.0625 3.6875 C16.95959179 6.30949945 22.94974375 8.38137971 29.125 10.25 C29.92301025 10.49580811 30.72102051 10.74161621 31.54321289 10.99487305 C43.0300064 14.38172008 54.31204386 15.3370493 66.25 15.625 C67.5924696 15.66330989 68.93491806 15.70236841 70.27734375 15.7421875 C73.5180268 15.83544457 76.7589934 15.91876105 80 16 C80 20.95 80 25.9 80 31 C79.67 31 79.34 31 79 31 C79 26.71 79 22.42 79 18 C76.94845703 18.05220703 76.94845703 18.05220703 74.85546875 18.10546875 C49.79569406 18.549903 23.21367528 14.46435918 1 2 C0.67 1.34 0.34 0.68 0 0 Z " fill="#434343" transform="translate(543,554)"/>
<path d="M0 0 C-1.3418344 4.02550319 -3.4227573 4.88285636 -7 7 C-7.66 7 -8.32 7 -9 7 C-8.69180259 11.04200677 -8.37768084 15.08353225 -8.0625 19.125 C-7.97548828 20.26710938 -7.88847656 21.40921875 -7.79882812 22.5859375 C-7.71181641 23.69453125 -7.62480469 24.803125 -7.53515625 25.9453125 C-7.456604 26.96125488 -7.37805176 27.97719727 -7.29711914 29.02392578 C-6.99533542 32.04672247 -6.50067526 35.00478235 -6 38 C-5.95697085 40.12456431 -5.95962724 42.25038355 -6 44.375 C-6.06761634 52.28611219 -5.57344115 60.11518423 -5 68 C-1.37 68.33 2.26 68.66 6 69 C6 69.33 6 69.66 6 70 C1.71 70 -2.58 70 -7 70 C-7.43728818 64.26136794 -7.863916 58.52206466 -8.28173828 52.78198242 C-8.4244976 50.83972116 -8.56989782 48.89765174 -8.71826172 46.95581055 C-9.15188111 41.2671371 -9.53431989 35.57885689 -9.84179688 29.88189697 C-9.94865635 27.93529829 -10.06611267 25.98925665 -10.19335938 24.04388428 C-10.37006272 21.17916437 -10.48933787 18.31738019 -10.59375 15.44921875 C-10.65510132 14.5861763 -10.71645264 13.72313385 -10.77966309 12.8339386 C-10.86241268 9.09223912 -10.83907813 6.91836628 -8.24731445 4.08169556 C-2.97657376 0 -2.97657376 0 0 0 Z " fill="#2D2D2D" transform="translate(638,289)"/>
<path d="M0 0 C0.66 0 1.32 0 2 0 C-0.50194482 7.50583446 -12.93990311 12.74236702 -19.8125 16.25 C-28.35637934 20.48084832 -38.36180402 25 -48 25 C-48 26.98 -48 28.96 -48 31 C-48.33 31 -48.66 31 -49 31 C-49 28.69 -49 26.38 -49 24 C-48.34104736 23.79431396 -47.68209473 23.58862793 -47.00317383 23.37670898 C-21.53493441 15.44217348 -21.53493441 15.44217348 0 0 Z " fill="#3E3E3E" transform="translate(690,543)"/>
<path d="M0 0 C0 0.66 0 1.32 0 2 C-1.9140625 3.375 -1.9140625 3.375 -4.625 5 C-9.12466911 7.78852733 -13.50554914 10.67628241 -17.8125 13.75 C-18.39322266 14.16435303 -18.97394531 14.57870605 -19.57226562 15.00561523 C-24.64512145 18.66787821 -29.55164682 22.53275924 -34.38208008 26.50878906 C-39.40931128 30.57086891 -39.40931128 30.57086891 -43 31 C-33.68400634 21.38853639 -22.78143005 13.6702988 -11.6875 6.25 C-10.76195312 5.62939697 -9.83640625 5.00879395 -8.8828125 4.36938477 C-2.25808226 0 -2.25808226 0 0 0 Z " fill="#2F2F2F" transform="translate(609,308)"/>
<path d="M0 0 C0.33 0 0.66 0 1 0 C3.125 6.625 3.125 6.625 2 10 C2.55246313 13.06365919 3.22524404 15.99037107 4 19 C4.23460937 20.02480469 4.46921875 21.04960937 4.7109375 22.10546875 C6.7685107 30.30744631 9.91231572 37.16456316 14.09008789 44.49023438 C15.11164845 46.29863551 16.06268673 48.14653177 17 50 C16.67 50.66 16.34 51.32 16 52 C5.02075516 36.37569003 -0.84730814 19.17426934 0 0 Z " fill="#212121" transform="translate(500,453)"/>
<path d="M0 0 C0.66 0.33 1.32 0.66 2 1 C-2.78384849 6.4453189 -7.66000261 11.77783626 -12.75 16.9375 C-13.63171875 17.83339844 -14.5134375 18.72929687 -15.421875 19.65234375 C-17.83195632 21.8469784 -20.14666632 23.44503578 -23 25 C-18.83826187 15.4499062 -8.39083022 6.05695691 0 0 Z " fill="#A3A3A3" transform="translate(579,376)"/>
<path d="M0 0 C0.33 0 0.66 0 1 0 C1 14.19 1 28.38 1 43 C1.66 43.33 2.32 43.66 3 44 C1.02 44.495 1.02 44.495 -1 45 C-1.02486464 39.87711941 -1.04293752 34.75427458 -1.05493164 29.63134766 C-1.05993604 27.89143257 -1.06674159 26.15152164 -1.07543945 24.41162109 C-1.08767662 21.89940358 -1.09326739 19.38724206 -1.09765625 16.875 C-1.10281754 16.10696045 -1.10797882 15.3389209 -1.11329651 14.54760742 C-1.11380013 9.61241308 -0.70049068 4.88646786 0 0 Z " fill="#3A3939" transform="translate(625,178)"/>
<path d="M0 0 C0.495 1.485 0.495 1.485 1 3 C-9.24721674 10.76172162 -18.26560689 14.33708956 -31 16 C-30.34 16.99 -29.68 17.98 -29 19 C-31 18 -33 17 -35 16 C-35 15.01 -35 14.02 -35 13 C-33.96101562 12.90203125 -32.92203125 12.8040625 -31.8515625 12.703125 C-19.58094099 11.43598589 -9.0589649 9.0589649 0 0 Z " fill="#414141" transform="translate(567,682)"/>
<path d="M0 0 C1 3 1 3 -0.30078125 5.8984375 C-0.95734506 7.06528581 -1.62904907 8.22369385 -2.3125 9.375 C-2.67424316 9.9927832 -3.03598633 10.61056641 -3.40869141 11.24707031 C-9.91469784 22.09317701 -17.80736227 31.33544997 -27 40 C-27 37 -27 37 -25.56640625 35.37890625 C-24.90511719 34.77949219 -24.24382813 34.18007813 -23.5625 33.5625 C-13.5523075 23.85138179 -6.82411723 12.02412305 0 0 Z " fill="#292929" transform="translate(720,504)"/>
<path d="M0 0 C0.66 0.33 1.32 0.66 2 1 C-0.32665981 3.52706156 -2.66255116 6.045418 -5 8.5625 C-5.97259766 9.61920898 -5.97259766 9.61920898 -6.96484375 10.69726562 C-11.39328994 15.45455683 -16.02500939 19.81806391 -21 24 C-21.66 23.67 -22.32 23.34 -23 23 C-15.90092645 14.6801863 -8.08772182 7.33992393 0 0 Z " fill="#8E8E8E" transform="translate(522,299)"/>
<path d="M0 0 C0.99 0.33 1.98 0.66 3 1 C-6.45652174 9.54575018 -6.45652174 9.54575018 -11 13.4375 C-15.91150362 17.70750111 -20.43888189 22.36258066 -25 27 C-25.66 27.66 -26.32 28.32 -27 29 C-26.45570181 25.00904866 -24.55110152 23.18988787 -21.73828125 20.41015625 C-20.86623047 19.54326172 -19.99417969 18.67636719 -19.09570312 17.78320312 C-18.17724609 16.88537109 -17.25878906 15.98753906 -16.3125 15.0625 C-15.41337891 14.16853516 -14.51425781 13.27457031 -13.58789062 12.35351562 C-3.87972695 2.75931425 -3.87972695 2.75931425 0 0 Z " fill="#262626" transform="translate(565,339)"/>
<path d="M0 0 C0.66 0.33 1.32 0.66 2 1 C-6.2095968 10.5344885 -6.2095968 10.5344885 -10 14 C-10.66 14 -11.32 14 -12 14 C-12.2165625 14.928125 -12.2165625 14.928125 -12.4375 15.875 C-13 18 -13 18 -14 20 C-14.66 20 -15.32 20 -16 20 C-14.64138357 14.62984749 -12.29920643 11.62798998 -8.5625 7.75 C-7.82676758 6.95722656 -7.82676758 6.95722656 -7.07617188 6.1484375 C-4.82969468 3.7594712 -2.73979326 1.82652884 0 0 Z " fill="#969695" transform="translate(506,615)"/>
<path d="M0 0 C0.66 0.33 1.32 0.66 2 1 C0.23000902 2.93827536 -1.54095761 4.87564344 -3.3125 6.8125 C-3.81201172 7.35970703 -4.31152344 7.90691406 -4.82617188 8.47070312 C-7.16943128 11.03121837 -9.51144854 13.57939534 -12 16 C-12.99 15.67 -13.98 15.34 -15 15 C-10.28109462 9.59947495 -5.69641143 4.38185495 0 0 Z " fill="#939293" transform="translate(669,31)"/>
<path d="M0 0 C-0.33 1.32 -0.66 2.64 -1 4 C-1 3.34 -1 2.68 -1 2 C-3.60540782 3.28921216 -6.20934373 4.58125596 -8.8125 5.875 C-9.55048828 6.23980469 -10.28847656 6.60460937 -11.04882812 6.98046875 C-11.76103516 7.33496094 -12.47324219 7.68945312 -13.20703125 8.0546875 C-13.8616333 8.37937012 -14.51623535 8.70405273 -15.19067383 9.03857422 C-17.24652798 10.09255672 -17.24652798 10.09255672 -20 12 C-20.99 11.67 -21.98 11.34 -23 11 C-5.85985748 0 -5.85985748 0 0 0 Z " fill="#3A3A3A" transform="translate(614,410)"/>
<path d="M0 0 C-1.3418344 4.02550319 -3.4227573 4.88285636 -7 7 C-7.66 7 -8.32 7 -9 7 C-9 13.6 -9 20.2 -9 27 C-9.33 27 -9.66 27 -10 27 C-10.23373107 23.62618193 -10.37483519 20.25444999 -10.5 16.875 C-10.56703125 15.92367188 -10.6340625 14.97234375 -10.703125 13.9921875 C-10.89634652 7.03621267 -10.89634652 7.03621267 -8.25390625 3.98144531 C-3.07638889 0 -3.07638889 0 0 0 Z " fill="#434343" transform="translate(638,289)"/>
<path d="M0 0 C0.33 0.99 0.66 1.98 1 3 C0.45730469 3.53109375 -0.08539062 4.0621875 -0.64453125 4.609375 C-1.35996094 5.31578125 -2.07539062 6.0221875 -2.8125 6.75 C-3.87404297 7.79414063 -3.87404297 7.79414063 -4.95703125 8.859375 C-7.03281493 10.93721763 -7.03281493 10.93721763 -8.63671875 13.265625 C-9.08660156 13.83796875 -9.53648437 14.4103125 -10 15 C-10.66 15 -11.32 15 -12 15 C-10.38462556 11.10082032 -7.72075127 8.28706228 -4.875 5.25 C-4.40707031 4.74339844 -3.93914063 4.23679687 -3.45703125 3.71484375 C-2.30873459 2.47280859 -1.15491328 1.23588506 0 0 Z " fill="#313131" transform="translate(537,366)"/>
<path d="M0 0 C4.75 0.875 4.75 0.875 7 2 C7 2.66 7 3.32 7 4 C7.680625 4.2475 8.36125 4.495 9.0625 4.75 C12.56865083 6.24197908 15.71620368 8.06835511 19 10 C18.01 10.495 18.01 10.495 17 11 C11.04621237 8.32468693 5.27442638 4.84890574 0 1 C0 0.67 0 0.34 0 0 Z " fill="#4B4B4B" transform="translate(524,543)"/>
<path d="M0 0 C0.66 0.33 1.32 0.66 2 1 C0.37676928 3.12637234 -1.2484953 5.25113436 -2.875 7.375 C-3.33519531 7.97828125 -3.79539062 8.5815625 -4.26953125 9.203125 C-6.09372941 11.58251391 -7.87741212 13.87741212 -10 16 C-9.52112335 11.23735403 -7.50511358 8.77358348 -4.4375 5.1875 C-3.61121094 4.21167969 -2.78492188 3.23585938 -1.93359375 2.23046875 C-1.29550781 1.49441406 -0.65742187 0.75835937 0 0 Z " fill="#262626" transform="translate(524,381)"/>
<path d="M0 0 C-1.57533086 0.86883706 -3.16064509 1.71959068 -4.75 2.5625 C-5.63171875 3.03816406 -6.5134375 3.51382813 -7.421875 4.00390625 C-10.20701188 5.07998186 -11.26980214 5.06528748 -14 4 C-12.42466914 3.13116294 -10.83935491 2.28040932 -9.25 1.4375 C-8.36828125 0.96183594 -7.4865625 0.48617187 -6.578125 -0.00390625 C-3.79298812 -1.07998186 -2.73019786 -1.06528748 0 0 Z " fill="#636362" transform="translate(522,610)"/>
<path d="M0 0 C5.06998019 0.65419099 9.41990777 2.8546409 14 5 C11.26980214 6.06528748 10.20701188 6.07998186 7.421875 5.00390625 C6.54015625 4.52824219 5.6584375 4.05257812 4.75 3.5625 C3.85796875 3.08941406 2.9659375 2.61632812 2.046875 2.12890625 C1.37140625 1.75636719 0.6959375 1.38382813 0 1 C0 0.67 0 0.34 0 0 Z " fill="#444445" transform="translate(543,554)"/>
<path d="M0 0 C0.33 0 0.66 0 1 0 C3.125 6.625 3.125 6.625 2 10 C1.65772583 11.33106622 1.32248257 12.66400079 1 14 C0 13 0 13 -0.09765625 10.05859375 C-0.08605469 8.86363281 -0.07445312 7.66867187 -0.0625 6.4375 C-0.05347656 5.23996094 -0.04445313 4.04242188 -0.03515625 2.80859375 C-0.02355469 1.88175781 -0.01195312 0.95492188 0 0 Z " fill="#0F0F0F" transform="translate(500,453)"/>
<path d="M0 0 C0 0.66 0 1.32 0 2 C-5.17578125 5.22265625 -5.17578125 5.22265625 -7 6 C-7.99 5.67 -8.98 5.34 -10 5 C-8.71186658 4.16121545 -7.41936744 3.32913217 -6.125 2.5 C-5.40570312 2.0359375 -4.68640625 1.571875 -3.9453125 1.09375 C-2 0 -2 0 0 0 Z " fill="#383838" transform="translate(609,308)"/>
<path d="M0 0 C0.99 0.33 1.98 0.66 3 1 C0.42215154 3.64752004 -1.91648098 5.94432065 -5 8 C-4.45773019 4.20411134 -2.79872437 2.52788007 0 0 Z " fill="#252525" transform="translate(661,106)"/>
<path d="" fill="#000000" transform="translate(0,0)"/>
<path d="" fill="#000000" transform="translate(0,0)"/>
<path d="" fill="#000000" transform="translate(0,0)"/>
</svg>
