<?xml version="1.0" standalone="no"?>
<!DOCTYPE svg PUBLIC "-//W3C//DTD SVG 20010904//EN" "http://www.w3.org/TR/2001/REC-SVG-20010904/DTD/svg10.dtd">
<svg xmlns="http://www.w3.org/2000/svg" version="1.0" width="453.000000pt" height="1280.000000pt" viewBox="0 0 453.000000 1280.000000" preserveAspectRatio="xMidYMid meet">
<metadata>
Created by potrace 1.16, written by Peter Selinger 2001-2019
<meta name="Producer" content="Online-Convert"/></metadata>
<g transform="translate(0.000000,1280.000000) scale(0.100000,-0.100000)" fill="#000000" stroke="none">
<path d="M2131 12765 c-30 -34 -51 -105 -51 -170 0 -29 -4 -35 -33 -44 -37 -12 -93 -62 -102 -90 -3 -10 -24 -26 -46 -36 -114 -52 -128 -154 -33 -245 26 -25 43 -39 39 -31 -6 11 -4 13 11 7 10 -5 28 -11 38 -14 20 -5 20 -5 0 -13 -18 -7 -18 -8 0 -8 16 -1 18 -6 12 -42 -7 -42 11 -79 38 -79 33 -1 37 -16 26 -91 -16 -107 -19 -119 -34 -119 -21 0 -76 -68 -76 -94 0 -12 12 -33 27 -47 l28 -24 -20 24 c-18 22 -15 21 17 -5 21 -16 38 -32 38 -36 0 -5 -17 -7 -37 -7 l-38 2 35 6 c21 4 29 9 20 12 -8 3 -26 3 -40 -1 -14 -4 -35 -2 -46 3 -14 6 -29 5 -42 -2 -11 -6 -31 -11 -44 -10 -13 0 -18 2 -13 4 6 1 29 8 52 15 35 11 46 11 60 0 17 -13 17 -13 1 5 -16 17 -21 17 -59 5 -37 -13 -42 -12 -51 3 -5 10 -13 15 -19 12 -5 -3 -6 0 -3 8 8 21 -69 85 -111 93 -89 16 -189 -18 -277 -96 -45 -39 -70 -79 -30 -49 15 13 16 12 3 -3 -7 -10 -17 -15 -22 -13 -9 6 -29 -26 -29 -47 0 -10 2 -10 8 0 6 8 9 1 9 -20 3 -90 10 -104 78 -142 30 -17 30 -17 6 1 -60 44 -62 50 -6 18 33 -20 84 -43 113 -51 67 -20 179 -22 212 -5 17 9 22 10 14 1 -7 -6 -36 -18 -65 -25 -53 -14 -53 -14 -9 -8 60 7 76 17 105 63 28 44 28 44 58 29 21 -10 21 -10 3 5 -11 9 -24 16 -30 16 -5 0 -7 3 -4 6 4 3 20 -2 38 -11 28 -15 34 -15 62 0 17 8 44 15 60 15 24 0 28 -4 27 -27 -2 -24 -2 -25 -6 -5 -6 28 -35 29 -88 2 -22 -11 -32 -20 -24 -20 8 0 24 7 35 15 29 22 64 19 64 -5 0 -11 -6 -20 -14 -20 -8 0 -17 -4 -20 -9 -4 -5 4 -7 16 -5 21 4 21 4 3 -4 -11 -5 -25 -7 -31 -5 -17 6 -44 -36 -44 -67 0 -17 13 -38 37 -61 20 -18 33 -28 29 -21 -9 14 3 16 24 2 10 -6 11 -10 3 -10 -7 0 -13 -10 -12 -22 0 -22 1 -22 9 -3 5 12 6 -11 3 -55 -7 -92 -19 -112 -17 -27 l2 62 -7 -65 c-4 -37 -3 -68 2 -71 21 -14 -21 -15 -71 -1 -48 14 -54 14 -72 -3 -19 -17 -22 -17 -90 14 -141 65 -277 65 -370 0 -29 -21 -38 -24 -26 -11 74 84 254 92 403 19 57 -28 64 -30 80 -15 10 9 27 18 38 21 19 4 19 5 1 6 -11 0 -28 -7 -38 -16 -18 -16 -22 -15 -81 14 -148 73 -300 68 -396 -13 -44 -37 -62 -79 -51 -124 7 -33 8 -33 7 12 -1 27 4 53 11 60 11 11 11 8 3 -14 -6 -15 -9 -33 -7 -40 3 -7 7 -29 10 -48 4 -25 3 -31 -4 -20 -8 13 -10 13 -10 -2 0 -25 59 -89 97 -104 46 -20 137 -17 218 5 71 20 219 80 199 81 -6 0 -37 -11 -68 -25 -181 -80 -341 -86 -401 -14 l-20 24 25 -22 c14 -12 38 -26 53 -32 68 -26 214 -3 343 54 49 22 61 24 89 14 24 -9 40 -9 65 0 47 16 85 14 101 -6 8 -9 9 -14 3 -10 -16 9 -23 -92 -28 -408 l-5 -260 13 322 c7 178 16 326 20 330 4 5 5 -35 2 -87 -6 -107 -6 -86 -46 -1335 -27 -825 -46 -1364 -52 -1435 -1 -14 -4 7 -8 45 l-6 70 -2 -72 c-2 -53 2 -73 11 -73 26 -1 -20 -18 -67 -25 -27 -3 -110 -22 -185 -40 -362 -89 -640 -227 -855 -423 l-81 -74 80 78 c106 103 235 191 398 270 73 35 128 64 122 64 -25 0 -264 -125 -347 -182 -89 -61 -278 -231 -278 -250 0 -5 6 -6 12 -2 7 4 4 -2 -6 -14 -23 -26 -34 -29 -15 -4 11 14 10 13 -9 -2 -23 -20 -31 -42 -9 -30 7 4 9 3 4 -2 -5 -5 -12 -9 -15 -9 -13 0 -32 -16 -32 -26 0 -6 5 -7 12 -3 7 4 8 3 4 -5 -4 -6 -11 -9 -16 -6 -5 3 -14 -3 -19 -14 -14 -26 -14 -34 1 -25 7 4 8 3 4 -5 -4 -6 -11 -9 -16 -6 -12 7 -68 -105 -105 -205 -30 -84 -65 -232 -64 -270 1 -14 7 2 15 35 8 36 11 44 8 20 -40 -350 -25 -592 61 -974 19 -85 33 -157 31 -159 -8 -7 -70 275 -97 443 -14 88 -17 101 -14 50 7 -89 56 -335 97 -485 17 -63 35 -133 38 -155 l7 -40 3 35 2 35 8 -40 c9 -45 -4 -143 -20 -159 -8 -8 -8 -3 -1 17 6 16 10 43 10 60 -1 27 -3 25 -9 -13 -5 -25 -15 -65 -24 -89 -35 -96 -8 -143 107 -187 108 -40 174 -81 252 -153 38 -36 63 -57 55 -46 -15 20 -14 20 8 1 23 -20 30 -32 11 -20 -7 4 -10 1 -7 -7 3 -8 10 -14 16 -14 5 0 14 -4 19 -9 5 -5 2 -6 -6 -1 -9 5 -12 3 -9 -6 3 -8 10 -13 16 -12 5 1 9 -3 8 -10 0 -7 14 -50 32 -96 18 -46 40 -122 47 -170 l15 -86 -4 70 c-4 59 -3 64 5 35 14 -46 14 -293 1 -350 -8 -39 -10 -41 -12 -15 -1 21 -6 11 -16 -35 -23 -107 -53 -200 -95 -289 -43 -93 -44 -95 -27 -85 7 4 8 3 4 -5 -4 -6 -11 -9 -16 -6 -5 3 -14 -3 -19 -14 -14 -26 -14 -34 1 -25 8 4 10 3 5 -2 -5 -5 -14 -9 -20 -9 -5 0 -12 -6 -15 -14 -3 -9 0 -11 8 -6 9 6 11 4 6 -4 -5 -7 -11 -10 -14 -7 -7 7 -32 -13 -32 -26 0 -6 8 -4 18 3 14 11 13 10 -2 -9 -21 -24 -32 -30 -20 -9 5 6 -23 -20 -61 -58 -41 -41 -96 -84 -134 -104 -62 -33 -66 -33 -135 -25 -117 13 -159 10 -194 -16 -18 -13 -32 -28 -32 -34 0 -5 13 3 30 19 33 32 70 35 196 21 69 -8 73 -7 133 24 34 18 92 60 129 92 l67 60 -67 -64 c-36 -35 -94 -79 -129 -97 -60 -33 -64 -33 -133 -25 -125 14 -163 10 -195 -21 -16 -15 -33 -25 -38 -23 -22 9 -32 -73 -30 -247 l2 -180 -82 -240 c-88 -259 -131 -414 -162 -595 -17 -100 -20 -161 -19 -475 l0 -360 28 -112 c40 -158 157 -422 180 -408 5 3 12 0 16 -6 5 -8 3 -9 -6 -4 -8 5 -11 3 -8 -6 3 -8 10 -14 16 -14 5 0 14 -4 19 -9 5 -5 2 -6 -6 -1 -9 5 -12 3 -9 -6 3 -8 10 -14 16 -14 5 0 14 -4 19 -9 5 -5 3 -6 -4 -2 -19 11 -16 -9 4 -25 11 -10 14 -10 9 -1 -11 18 -1 15 15 -5 10 -11 10 -14 2 -9 -22 12 -14 -10 9 -30 22 -19 23 -19 8 1 -11 15 -7 14 13 -4 28 -25 38 -43 12 -21 -8 7 -15 8 -15 2 0 -5 46 -54 103 -108 100 -96 213 -183 309 -239 79 -45 54 -22 -34 33 -101 61 -224 160 -298 238 -44 47 -40 44 25 -17 343 -320 784 -493 1374 -539 174 -13 758 -13 932 0 590 46 1031 219 1374 539 65 61 69 64 25 17 -74 -78 -197 -177 -297 -238 -89 -55 -114 -78 -35 -33 96 56 209 143 309 239 57 54 103 103 103 108 0 6 -8 4 -17 -3 -10 -7 -7 -1 6 14 27 30 41 37 20 10 -11 -15 -10 -14 9 1 23 20 31 42 9 30 -8 -5 -8 -2 2 9 16 20 26 23 15 5 -5 -9 -2 -9 9 1 20 16 23 36 4 25 -7 -4 -9 -3 -4 2 5 5 14 9 19 9 6 0 13 6 16 14 3 9 0 11 -9 6 -8 -5 -11 -4 -6 1 5 5 14 9 19 9 6 0 13 6 16 14 3 9 0 11 -8 6 -9 -5 -11 -4 -6 4 4 6 11 9 16 6 12 -7 83 123 76 141 -3 8 -2 13 3 10 14 -9 70 136 101 259 l28 110 0 360 c1 314 -2 375 -19 475 -31 181 -74 336 -162 595 l-82 240 2 180 c2 174 -8 256 -30 247 -5 -2 -22 8 -38 23 -32 31 -70 35 -195 21 -69 -8 -73 -8 -133 25 -35 18 -93 62 -129 97 l-67 64 67 -60 c37 -32 95 -74 129 -92 60 -31 64 -32 133 -24 126 14 163 11 196 -21 17 -16 30 -24 30 -19 0 6 -14 21 -32 34 -35 26 -77 29 -194 16 -69 -8 -73 -8 -135 25 -38 20 -93 63 -134 104 -38 38 -65 63 -60 55 5 -9 0 -8 -13 4 -25 21 -31 36 -7 16 8 -7 15 -8 15 -2 0 11 -20 29 -35 32 -5 1 -12 4 -15 7 -3 4 1 3 9 -2 9 -5 12 -3 9 6 -3 8 -10 14 -15 14 -6 0 -15 4 -20 9 -5 5 -3 6 5 2 15 -9 15 -1 1 25 -5 11 -14 17 -19 14 -5 -3 -12 0 -16 6 -4 8 -3 9 4 5 17 -11 15 -1 -14 56 -58 114 -107 276 -124 411 l-9 72 3 -80 c3 -65 2 -73 -6 -45 -12 46 -12 316 0 360 9 30 10 24 6 -35 l-4 -70 15 86 c7 48 29 124 47 170 18 46 32 89 32 96 -1 7 3 11 8 10 6 -1 13 4 16 12 3 9 0 11 -9 6 -8 -5 -11 -4 -6 1 5 5 14 9 19 9 6 0 13 6 16 14 3 9 0 11 -9 6 -8 -5 -5 1 5 13 23 26 34 29 15 4 -7 -9 18 13 56 49 78 72 144 113 252 153 115 44 142 91 107 187 -9 24 -19 64 -24 89 -6 38 -8 40 -9 13 0 -17 4 -44 10 -60 7 -20 7 -25 -1 -17 -16 16 -29 114 -20 159 l8 40 2 -35 3 -35 7 40 c3 22 21 92 38 155 41 150 90 396 97 485 3 51 0 38 -14 -50 -27 -168 -89 -450 -97 -443 -2 2 12 74 31 159 86 382 101 624 61 974 -3 24 0 16 8 -20 8 -33 14 -49 15 -35 1 38 -34 186 -64 270 -37 100 -93 212 -105 205 -5 -3 -12 0 -16 6 -4 8 -3 9 4 5 15 -9 15 -1 1 25 -5 11 -14 17 -19 14 -5 -3 -12 0 -16 6 -4 8 -3 9 4 5 7 -4 12 -3 12 3 0 10 -19 26 -32 26 -3 0 -10 4 -15 9 -5 5 -3 6 5 2 21 -12 13 10 -10 30 -22 19 -23 19 -8 -1 15 -20 14 -20 -8 -1 -23 20 -30 32 -12 21 6 -3 10 -2 10 3 0 19 -189 189 -278 250 -83 57 -322 182 -347 182 -5 0 49 -29 122 -64 163 -79 292 -167 398 -270 l80 -78 -81 74 c-215 196 -493 334 -855 423 -75 18 -158 37 -185 40 -47 7 -93 24 -66 25 8 0 12 20 10 73 l-2 72 -5 -70 c-6 -67 -7 -64 -14 60 -4 72 -28 675 -52 1340 -24 666 -47 1262 -50 1325 -4 63 -4 112 0 108 4 -4 13 -145 20 -315 6 -169 13 -267 13 -218 1 50 -3 191 -8 315 l-10 225 28 25 c63 55 69 109 17 160 -26 25 -35 43 -36 69 l-2 36 -6 -40 c-6 -37 -7 -35 -15 33 -4 40 -5 76 -2 79 3 4 6 -11 6 -32 0 -45 11 -41 12 4 1 25 4 31 17 25 37 -15 50 -15 81 1 31 16 33 16 49 -1 9 -9 10 -14 4 -10 -16 9 -16 1 -2 -25 5 -11 14 -17 18 -15 4 3 19 -6 32 -20 80 -86 228 -94 341 -18 28 19 45 28 38 19 -19 -23 -77 -56 -123 -71 -23 -7 -33 -13 -21 -13 34 -1 120 48 158 89 33 37 62 108 53 133 -2 7 -7 -7 -11 -30 -4 -24 -11 -45 -16 -48 -4 -3 -3 13 2 34 8 30 6 52 -5 91 -9 29 -12 49 -7 44 5 -5 13 -25 18 -44 6 -19 11 -27 11 -17 2 28 -28 89 -57 120 -35 37 -94 67 -129 66 -25 -1 -25 -2 7 -8 46 -10 90 -34 115 -62 l20 -24 -25 21 c-47 40 -87 54 -157 54 l-68 0 32 16 c17 9 51 32 75 51 l43 35 -37 -36 c-21 -20 -34 -36 -30 -36 10 0 82 73 82 84 0 4 -5 4 -12 0 -7 -4 -8 -3 -4 5 4 6 11 9 16 6 10 -6 40 46 40 67 -1 7 -7 -2 -15 -19 -8 -18 -16 -33 -19 -33 -3 0 1 15 9 34 9 21 13 55 10 87 -3 41 -2 47 4 24 8 -26 8 -24 5 13 -4 48 -30 106 -44 97 -5 -3 -12 0 -16 6 -4 8 -3 9 4 5 7 -4 12 -3 12 3 0 14 -61 62 -100 79 -44 18 -152 12 -198 -12 -53 -27 -110 -84 -122 -122 -12 -34 -12 -34 -75 -34 l-63 0 -5 33 c-3 17 -9 59 -12 92 -4 33 -9 68 -11 78 -5 14 2 17 38 19 42 1 42 1 -12 8 l-55 7 64 1 63 2 -4 33 c-3 17 -8 39 -12 48 -5 12 0 18 21 22 29 6 113 71 113 88 0 6 -5 7 -12 3 -7 -4 -8 -3 -4 5 4 6 12 9 17 5 15 -9 41 64 34 96 -7 34 -73 97 -110 106 -15 4 -25 13 -25 25 0 25 -53 84 -89 98 -25 11 -29 18 -35 72 -6 65 -31 122 -68 155 -20 19 -35 22 -115 22 -93 0 -93 0 -122 -33z m464 -1175 c4 -6 10 -8 15 -5 5 3 12 0 16 -6 5 -8 3 -9 -6 -4 -8 5 -11 3 -8 -6 3 -8 10 -14 16 -14 5 0 14 -4 19 -9 5 -5 3 -6 -4 -2 -23 13 -14 -10 15 -36 61 -56 103 -81 114 -70 9 9 7 12 -9 12 -11 0 -31 9 -44 21 l-24 20 25 -15 c14 -8 45 -18 70 -22 l44 -7 -38 -14 c-22 -7 -55 -25 -75 -39 l-36 -25 35 30 c19 17 31 31 27 31 -3 0 -22 -14 -42 -31 -35 -31 -37 -31 -75 -19 -22 7 -53 10 -74 6 -31 -6 -36 -4 -36 13 0 30 -11 52 -23 44 -6 -3 -7 -1 -3 6 4 6 11 9 16 6 16 -10 32 36 26 71 -4 18 -10 36 -15 38 -4 3 -3 -12 3 -34 7 -29 7 -43 -1 -51 -9 -9 -11 -7 -6 9 3 12 1 34 -5 50 -14 40 1 62 43 62 19 0 37 -5 40 -10z"/>
</g>
</svg>
